<svg width="156" height="60" viewBox="0 0 156 60" fill="none" xmlns="http://www.w3.org/2000/svg">
<path d="M15.98 8.72C15.72 7.06 15.16 5.81 14.3 4.97C13.46 4.13 12.34 3.7 10.94 3.68C9.9 3.68 8.99 3.92 8.21 4.4C7.43 4.88 6.78 5.52 6.26 6.32C5.76 7.12 5.38 8.03 5.12 9.05C4.88 10.07 4.76 11.12 4.76 12.2C4.76 13.92 5 15.45 5.48 16.79C5.98 18.11 6.7 19.15 7.64 19.91C8.58 20.67 9.72 21.05 11.06 21.05C12.32 21.05 13.57 20.73 14.81 20.09C16.05 19.43 17.09 18.52 17.93 17.36L19.37 18.68C18.39 20.02 17.36 21.04 16.28 21.74C15.2 22.42 14.14 22.88 13.1 23.12C12.08 23.36 11.16 23.48 10.34 23.48C8.8 23.48 7.4 23.21 6.14 22.67C4.88 22.11 3.79 21.35 2.87 20.39C1.97 19.41 1.27 18.28 0.77 17C0.29 15.7 0.05 14.3 0.05 12.8C0.05 11.44 0.27 10.09 0.71 8.75C1.15 7.41 1.8 6.2 2.66 5.12C3.54 4.02 4.64 3.15 5.96 2.51C7.28 1.85 8.81 1.52 10.55 1.52C11.33 1.52 12.18 1.65 13.1 1.91C14.04 2.15 14.92 2.51 15.74 2.99L15.62 1.73H17.93V8.72H15.98ZM29.0743 23C29.0343 22.72 29.0043 22.49 28.9843 22.31C28.9843 22.11 28.9743 21.88 28.9543 21.62C28.2743 22.3 27.5543 22.78 26.7943 23.06C26.0343 23.34 25.2643 23.48 24.4843 23.48C23.2043 23.48 22.2043 23.1 21.4843 22.34C20.7643 21.58 20.4043 20.63 20.4043 19.49C20.4043 18.53 20.6443 17.71 21.1243 17.03C21.6243 16.35 22.2743 15.8 23.0743 15.38C23.8943 14.94 24.7943 14.61 25.7743 14.39C26.7743 14.15 27.7743 14.01 28.7743 13.97V12.41C28.7743 11.89 28.7043 11.42 28.5643 11C28.4443 10.58 28.2243 10.25 27.9043 10.01C27.6043 9.77 27.1743 9.66 26.6143 9.68C26.2343 9.7 25.8643 9.78 25.5043 9.92C25.1443 10.06 24.8343 10.26 24.5743 10.52C24.7343 10.7 24.8343 10.9 24.8743 11.12C24.9143 11.32 24.9343 11.5 24.9343 11.66C24.9343 12.06 24.7743 12.48 24.4543 12.92C24.1343 13.34 23.6243 13.54 22.9243 13.52C22.3243 13.5 21.8643 13.29 21.5443 12.89C21.2243 12.49 21.0643 12.02 21.0643 11.48C21.0643 10.68 21.3443 9.99 21.9043 9.41C22.4843 8.81 23.2543 8.35 24.2143 8.03C25.1743 7.69 26.2343 7.52 27.3943 7.52C29.1543 7.52 30.5143 7.98 31.4743 8.9C32.4543 9.8 32.9443 11.25 32.9443 13.25C32.9443 13.93 32.9443 14.51 32.9443 14.99C32.9443 15.47 32.9343 15.95 32.9143 16.43C32.9143 16.91 32.9143 17.49 32.9143 18.17C32.9143 18.45 32.9043 18.85 32.8843 19.37C32.8643 19.87 32.8343 20.35 32.7943 20.81C33.1343 20.77 33.4943 20.75 33.8743 20.75C34.2543 20.73 34.5443 20.72 34.7443 20.72V23H29.0743ZM28.7443 16.1C28.1843 16.16 27.6543 16.26 27.1543 16.4C26.6543 16.54 26.2143 16.73 25.8343 16.97C25.4743 17.21 25.1843 17.5 24.9643 17.84C24.7643 18.18 24.6643 18.56 24.6643 18.98C24.6843 19.54 24.8643 19.94 25.2043 20.18C25.5443 20.42 25.9343 20.54 26.3743 20.54C26.8343 20.54 27.2643 20.44 27.6643 20.24C28.0643 20.04 28.4243 19.78 28.7443 19.46C28.7443 19.26 28.7443 19.07 28.7443 18.89C28.7443 18.69 28.7443 18.49 28.7443 18.29C28.7443 17.93 28.7443 17.57 28.7443 17.21C28.7443 16.83 28.7443 16.46 28.7443 16.1ZM36.0167 30.65V28.7C36.5767 28.7 36.9767 28.59 37.2167 28.37C37.4767 28.15 37.6367 27.83 37.6967 27.41C37.7767 27.01 37.8167 26.55 37.8167 26.03V13.34C37.8167 12.98 37.8267 12.58 37.8467 12.14C37.8667 11.68 37.8967 11.23 37.9367 10.79C37.6167 10.81 37.2367 10.83 36.7967 10.85C36.3567 10.85 36.0267 10.86 35.8067 10.88V8.6C36.7467 8.6 37.5267 8.55 38.1467 8.45C38.7867 8.35 39.2867 8.23 39.6467 8.09C40.0267 7.95 40.2867 7.82 40.4267 7.7H41.8967C41.9367 7.9 41.9667 8.15 41.9867 8.45C42.0067 8.73 42.0267 8.96 42.0467 9.14C42.7467 8.54 43.4367 8.12 44.1167 7.88C44.8167 7.64 45.4767 7.52 46.0967 7.52C47.2967 7.52 48.3467 7.83 49.2467 8.45C50.1667 9.07 50.8767 9.95 51.3767 11.09C51.8967 12.23 52.1567 13.57 52.1567 15.11C52.1567 16.71 51.8467 18.15 51.2267 19.43C50.6067 20.69 49.7367 21.68 48.6167 22.4C47.5167 23.12 46.2167 23.48 44.7167 23.48C44.1767 23.48 43.6867 23.42 43.2467 23.3C42.8267 23.2 42.4267 23.08 42.0467 22.94V25.82C42.0467 26.1 42.0367 26.49 42.0167 26.99C42.0167 27.51 41.9967 28 41.9567 28.46C42.2767 28.42 42.6267 28.39 43.0067 28.37C43.3867 28.37 43.6767 28.37 43.8767 28.37V30.65H36.0167ZM44.2367 21.23C45.1567 21.21 45.8667 20.94 46.3667 20.42C46.8867 19.88 47.2467 19.18 47.4467 18.32C47.6467 17.46 47.7467 16.54 47.7467 15.56C47.7467 14.64 47.6367 13.77 47.4167 12.95C47.1967 12.13 46.8467 11.47 46.3667 10.97C45.8867 10.45 45.2567 10.2 44.4767 10.22C43.9767 10.24 43.5167 10.37 43.0967 10.61C42.6767 10.83 42.3267 11.14 42.0467 11.54C42.0467 12.16 42.0467 12.78 42.0467 13.4C42.0467 14 42.0467 14.6 42.0467 15.2C42.0467 15.8 42.0467 16.41 42.0467 17.03C42.0467 17.63 42.0467 18.24 42.0467 18.86C42.0467 19.46 42.0467 20.07 42.0467 20.69C42.2667 20.83 42.5767 20.96 42.9767 21.08C43.3767 21.2 43.7967 21.25 44.2367 21.23ZM54.1843 21.05C54.7443 21.05 55.1443 20.94 55.3843 20.72C55.6243 20.5 55.7743 20.19 55.8343 19.79C55.9143 19.37 55.9543 18.9 55.9543 18.38V13.4C55.9543 13.04 55.9643 12.63 55.9843 12.17C56.0043 11.69 56.0343 11.23 56.0743 10.79C55.7543 10.81 55.3743 10.83 54.9343 10.85C54.5143 10.85 54.1943 10.86 53.9743 10.88V8.6C54.8943 8.6 55.6743 8.55 56.3143 8.45C56.9543 8.35 57.4543 8.23 57.8143 8.09C58.1943 7.95 58.4543 7.82 58.5943 7.7H60.2143V18.17C60.2143 18.45 60.2043 18.85 60.1843 19.37C60.1643 19.87 60.1343 20.35 60.0943 20.81C60.4143 20.77 60.7643 20.75 61.1443 20.75C61.5443 20.73 61.8443 20.72 62.0443 20.72V23H54.1843V21.05ZM57.9343 5.33C57.2543 5.33 56.6943 5.09 56.2543 4.61C55.8143 4.13 55.5943 3.55 55.5943 2.87C55.5943 2.19 55.8243 1.61 56.2843 1.13C56.7443 0.649999 57.2843 0.409999 57.9043 0.409999C58.5443 0.409999 59.0743 0.649999 59.4943 1.13C59.9343 1.61 60.1543 2.19 60.1543 2.87C60.1543 3.55 59.9543 4.13 59.5543 4.61C59.1543 5.09 58.6143 5.33 57.9343 5.33ZM69.6716 23.48C69.0716 23.48 68.4916 23.41 67.9316 23.27C67.3916 23.13 66.8916 22.87 66.4316 22.49C65.9916 22.09 65.6416 21.51 65.3816 20.75C65.1216 19.99 64.9916 18.98 64.9916 17.72L65.0516 10.49H63.0116V8C63.6316 7.98 64.2316 7.77 64.8116 7.37C65.3916 6.97 65.8816 6.45 66.2816 5.81C66.7016 5.17 66.9816 4.5 67.1216 3.8H69.3416L69.3116 8H73.1216V10.31L69.3116 10.4L69.2816 17.78C69.2816 18.24 69.3216 18.7 69.4016 19.16C69.5016 19.6 69.6816 19.97 69.9416 20.27C70.2016 20.55 70.5816 20.69 71.0816 20.69C71.3616 20.69 71.7416 20.59 72.2216 20.39C72.7216 20.19 73.2516 19.69 73.8116 18.89L75.2516 20.24C74.7116 21.04 74.1516 21.66 73.5716 22.1C72.9916 22.54 72.4316 22.86 71.8916 23.06C71.3716 23.26 70.9116 23.38 70.5116 23.42C70.1116 23.46 69.8316 23.48 69.6716 23.48ZM84.3141 23C84.2741 22.72 84.2441 22.49 84.2241 22.31C84.2241 22.11 84.2141 21.88 84.1941 21.62C83.5141 22.3 82.7941 22.78 82.0341 23.06C81.2741 23.34 80.5041 23.48 79.7241 23.48C78.4441 23.48 77.4441 23.1 76.7241 22.34C76.0041 21.58 75.6441 20.63 75.6441 19.49C75.6441 18.53 75.8841 17.71 76.3641 17.03C76.8641 16.35 77.5141 15.8 78.3141 15.38C79.1341 14.94 80.0341 14.61 81.0141 14.39C82.0141 14.15 83.0141 14.01 84.0141 13.97V12.41C84.0141 11.89 83.9441 11.42 83.8041 11C83.6841 10.58 83.4641 10.25 83.1441 10.01C82.8441 9.77 82.4141 9.66 81.8541 9.68C81.4741 9.7 81.1041 9.78 80.7441 9.92C80.3841 10.06 80.0741 10.26 79.8141 10.52C79.9741 10.7 80.0741 10.9 80.1141 11.12C80.1541 11.32 80.1741 11.5 80.1741 11.66C80.1741 12.06 80.0141 12.48 79.6941 12.92C79.3741 13.34 78.8641 13.54 78.1641 13.52C77.5641 13.5 77.1041 13.29 76.7841 12.89C76.4641 12.49 76.3041 12.02 76.3041 11.48C76.3041 10.68 76.5841 9.99 77.1441 9.41C77.7241 8.81 78.4941 8.35 79.4541 8.03C80.4141 7.69 81.4741 7.52 82.6341 7.52C84.3941 7.52 85.7541 7.98 86.7141 8.9C87.6941 9.8 88.1841 11.25 88.1841 13.25C88.1841 13.93 88.1841 14.51 88.1841 14.99C88.1841 15.47 88.1741 15.95 88.1541 16.43C88.1541 16.91 88.1541 17.49 88.1541 18.17C88.1541 18.45 88.1441 18.85 88.1241 19.37C88.1041 19.87 88.0741 20.35 88.0341 20.81C88.3741 20.77 88.7341 20.75 89.1141 20.75C89.4941 20.73 89.7841 20.72 89.9841 20.72V23H84.3141ZM83.9841 16.1C83.4241 16.16 82.8941 16.26 82.3941 16.4C81.8941 16.54 81.4541 16.73 81.0741 16.97C80.7141 17.21 80.4241 17.5 80.2041 17.84C80.0041 18.18 79.9041 18.56 79.9041 18.98C79.9241 19.54 80.1041 19.94 80.4441 20.18C80.7841 20.42 81.1741 20.54 81.6141 20.54C82.0741 20.54 82.5041 20.44 82.9041 20.24C83.3041 20.04 83.6641 19.78 83.9841 19.46C83.9841 19.26 83.9841 19.07 83.9841 18.89C83.9841 18.69 83.9841 18.49 83.9841 18.29C83.9841 17.93 83.9841 17.57 83.9841 17.21C83.9841 16.83 83.9841 16.46 83.9841 16.1ZM91.0766 21.05C91.6366 21.05 92.0366 20.94 92.2766 20.72C92.5366 20.5 92.6966 20.19 92.7566 19.79C92.8166 19.37 92.8466 18.9 92.8466 18.38V6.05C92.8466 5.69 92.8566 5.28 92.8766 4.82C92.8966 4.34 92.9266 3.88 92.9666 3.44C92.6466 3.46 92.2666 3.48 91.8266 3.5C91.4066 3.5 91.0866 3.51 90.8666 3.53V1.25C91.8066 1.25 92.5866 1.2 93.2066 1.1C93.8466 1 94.3466 0.879999 94.7066 0.739999C95.0866 0.599999 95.3466 0.469999 95.4866 0.349998H97.1066V18.17C97.1066 18.45 97.0966 18.85 97.0766 19.37C97.0566 19.87 97.0266 20.35 96.9866 20.81C97.3266 20.77 97.6866 20.75 98.0666 20.75C98.4466 20.73 98.7366 20.72 98.9366 20.72V23H91.0766V21.05ZM10.232 52.26C9.46933 50.5267 8.698 48.802 7.918 47.086C7.138 45.3527 6.37533 43.602 5.63 41.834C5.38733 41.2793 5.14467 40.7247 4.902 40.17C4.67667 39.598 4.45133 39.026 4.226 38.454C4.018 37.882 3.80133 37.31 3.576 36.738C3.576 36.9287 3.56733 37.1193 3.55 37.31C3.55 37.5007 3.55 37.6913 3.55 37.882C3.53267 38.506 3.50667 39.26 3.472 40.144C3.45467 41.0107 3.42867 41.9467 3.394 42.952C3.35933 43.94 3.33333 44.9367 3.316 45.942C3.29867 46.93 3.28133 47.866 3.264 48.75C3.24667 49.1313 3.22933 49.5127 3.212 49.894C3.212 50.2753 3.19467 50.6307 3.16 50.96C3.48933 50.9427 3.81 50.9253 4.122 50.908C4.45133 50.8907 4.78067 50.8733 5.11 50.856V52H0.144V51.142C0.681333 51.1247 1.07133 51.012 1.314 50.804C1.574 50.5787 1.73867 50.284 1.808 49.92C1.87733 49.556 1.92067 49.166 1.938 48.75L2.432 36.894C2.44933 36.5473 2.458 36.2007 2.458 35.854C2.47533 35.5073 2.49267 35.1693 2.51 34.84C2.198 34.8573 1.886 34.8747 1.574 34.892C1.262 34.892 0.95 34.9007 0.638 34.918V33.8H4.616L9.088 44.122C9.31333 44.642 9.53 45.162 9.738 45.682C9.96333 46.202 10.1887 46.722 10.414 47.242C10.6567 47.762 10.8907 48.2907 11.116 48.828H11.168C11.3587 48.36 11.584 47.8053 11.844 47.164C12.104 46.5053 12.3207 45.942 12.494 45.474C13.2567 43.5673 14.0453 41.6607 14.86 39.754C15.692 37.83 16.5067 35.8453 17.304 33.8H21.152V34.658C20.7187 34.6407 20.3633 34.7273 20.086 34.918C19.8087 35.0913 19.6093 35.386 19.488 35.802C19.3667 36.218 19.3233 36.7813 19.358 37.492L20.034 49.322C20.0687 49.6167 20.086 49.9027 20.086 50.18C20.086 50.4573 20.086 50.7087 20.086 50.934C20.398 50.9167 20.71 50.908 21.022 50.908C21.3513 50.8907 21.672 50.8733 21.984 50.856V52H16.16V51.142C16.6973 51.1247 17.096 50.9947 17.356 50.752C17.616 50.5093 17.772 50.1627 17.824 49.712C17.8933 49.2613 17.9107 48.7067 17.876 48.048L17.356 39.468C17.3387 39.1907 17.3213 38.9133 17.304 38.636C17.2867 38.3587 17.2693 38.0813 17.252 37.804C17.2347 37.5267 17.2173 37.2493 17.2 36.972C17.148 37.0933 17.0873 37.2233 17.018 37.362C16.966 37.5007 16.914 37.648 16.862 37.804L11.012 52.26H10.232ZM31.7852 52C31.7332 51.7053 31.6985 51.4453 31.6812 51.22C31.6639 50.9947 31.6379 50.7607 31.6032 50.518C31.0139 51.1073 30.3725 51.5753 29.6792 51.922C29.0032 52.2513 28.2839 52.416 27.5212 52.416C26.2039 52.416 25.2245 52.1213 24.5832 51.532C23.9419 50.9253 23.6212 50.1887 23.6212 49.322C23.6212 48.5247 23.8639 47.84 24.3492 47.268C24.8519 46.6787 25.4932 46.202 26.2732 45.838C27.0705 45.4567 27.9285 45.1793 28.8472 45.006C29.7832 44.8153 30.6845 44.7287 31.5512 44.746V43.134C31.5512 42.5273 31.4992 41.9553 31.3952 41.418C31.2912 40.8807 31.0659 40.4387 30.7192 40.092C30.3725 39.7453 29.8179 39.5633 29.0552 39.546C28.5525 39.5287 28.0325 39.624 27.4952 39.832C26.9752 40.04 26.5939 40.3953 26.3512 40.898C26.4899 41.0367 26.5765 41.2013 26.6112 41.392C26.6632 41.5653 26.6892 41.73 26.6892 41.886C26.6892 42.094 26.6025 42.3367 26.4292 42.614C26.2559 42.874 25.9525 42.9953 25.5192 42.978C25.1552 42.978 24.8779 42.8567 24.6872 42.614C24.4965 42.354 24.4012 42.0507 24.4012 41.704C24.4012 41.1147 24.6179 40.586 25.0512 40.118C25.5019 39.65 26.1172 39.2773 26.8972 39C27.6772 38.7227 28.5612 38.584 29.5492 38.584C31.0052 38.584 32.0799 38.974 32.7732 39.754C33.4665 40.5167 33.8045 41.73 33.7872 43.394C33.7872 44.0353 33.7872 44.6853 33.7872 45.344C33.7872 45.9853 33.7785 46.6353 33.7612 47.294C33.7612 47.9353 33.7612 48.5853 33.7612 49.244C33.7612 49.5213 33.7525 49.7987 33.7352 50.076C33.7179 50.3533 33.6919 50.6653 33.6572 51.012C33.9692 50.9947 34.2725 50.9773 34.5672 50.96C34.8792 50.9427 35.1912 50.9253 35.5032 50.908V52H31.7852ZM31.5512 45.63C30.9619 45.6473 30.3379 45.7253 29.6792 45.864C29.0379 45.9853 28.4399 46.176 27.8852 46.436C27.3479 46.696 26.9059 47.0427 26.5592 47.476C26.2299 47.892 26.0739 48.4033 26.0912 49.01C26.1259 49.6513 26.3339 50.1367 26.7152 50.466C27.1139 50.778 27.5819 50.934 28.1192 50.934C28.8299 50.934 29.4452 50.804 29.9652 50.544C30.5025 50.2667 31.0312 49.8853 31.5512 49.4C31.5339 49.2093 31.5252 49.0013 31.5252 48.776C31.5252 48.5507 31.5252 48.3167 31.5252 48.074C31.5252 47.9873 31.5252 47.71 31.5252 47.242C31.5425 46.774 31.5512 46.2367 31.5512 45.63ZM37.1574 52V51.22C37.6948 51.22 38.0674 51.09 38.2754 50.83C38.4834 50.5527 38.6048 50.18 38.6394 49.712C38.6741 49.2267 38.6914 48.672 38.6914 48.048L38.7174 42.12C38.7174 41.8427 38.7174 41.5653 38.7174 41.288C38.7348 41.0107 38.7694 40.7247 38.8214 40.43C38.5094 40.4473 38.1974 40.4647 37.8854 40.482C37.5908 40.4993 37.2874 40.5167 36.9754 40.534V39.442C37.7381 39.442 38.3101 39.4073 38.6914 39.338C39.0901 39.2687 39.3848 39.182 39.5754 39.078C39.7661 38.974 39.9221 38.8613 40.0434 38.74H40.7974C40.8148 38.8613 40.8234 39 40.8234 39.156C40.8408 39.312 40.8581 39.4853 40.8754 39.676C40.8928 39.8667 40.9014 40.0833 40.9014 40.326C41.2828 39.9967 41.6988 39.702 42.1494 39.442C42.6174 39.182 43.1028 38.974 43.6054 38.818C44.1254 38.662 44.6368 38.584 45.1394 38.584C46.6474 38.584 47.7481 39.0607 48.4414 40.014C49.1348 40.95 49.4814 42.4147 49.4814 44.408V49.244C49.4814 49.5907 49.4728 49.9027 49.4554 50.18C49.4554 50.44 49.4294 50.7173 49.3774 51.012C49.6548 50.9947 49.9234 50.986 50.1834 50.986C50.4608 50.9687 50.7381 50.9513 51.0154 50.934V52H45.7114V51.22C46.2488 51.22 46.6214 51.09 46.8294 50.83C47.0374 50.5527 47.1588 50.18 47.1934 49.712C47.2281 49.2267 47.2454 48.672 47.2454 48.048V44.408C47.2281 42.9173 46.9768 41.7907 46.4914 41.028C46.0234 40.2653 45.2781 39.8927 44.2554 39.91C43.6314 39.9273 43.0161 40.092 42.4094 40.404C41.8201 40.716 41.3261 41.1147 40.9274 41.6C40.9448 41.7387 40.9534 41.8947 40.9534 42.068C40.9534 42.2413 40.9534 42.4233 40.9534 42.614L40.9274 49.244C40.9274 49.5907 40.9188 49.9027 40.9014 50.18C40.9014 50.44 40.8754 50.7173 40.8234 51.012C41.1008 50.9947 41.3694 50.986 41.6294 50.986C41.9068 50.9687 42.1841 50.9513 42.4614 50.934V52H37.1574ZM60.7244 52C60.6724 51.7053 60.6377 51.4453 60.6204 51.22C60.6031 50.9947 60.5771 50.7607 60.5424 50.518C59.9531 51.1073 59.3117 51.5753 58.6184 51.922C57.9424 52.2513 57.2231 52.416 56.4604 52.416C55.1431 52.416 54.1637 52.1213 53.5224 51.532C52.8811 50.9253 52.5604 50.1887 52.5604 49.322C52.5604 48.5247 52.8031 47.84 53.2884 47.268C53.7911 46.6787 54.4324 46.202 55.2124 45.838C56.0097 45.4567 56.8677 45.1793 57.7864 45.006C58.7224 44.8153 59.6237 44.7287 60.4904 44.746V43.134C60.4904 42.5273 60.4384 41.9553 60.3344 41.418C60.2304 40.8807 60.0051 40.4387 59.6584 40.092C59.3117 39.7453 58.7571 39.5633 57.9944 39.546C57.4917 39.5287 56.9717 39.624 56.4344 39.832C55.9144 40.04 55.5331 40.3953 55.2904 40.898C55.4291 41.0367 55.5157 41.2013 55.5504 41.392C55.6024 41.5653 55.6284 41.73 55.6284 41.886C55.6284 42.094 55.5417 42.3367 55.3684 42.614C55.1951 42.874 54.8917 42.9953 54.4584 42.978C54.0944 42.978 53.8171 42.8567 53.6264 42.614C53.4357 42.354 53.3404 42.0507 53.3404 41.704C53.3404 41.1147 53.5571 40.586 53.9904 40.118C54.4411 39.65 55.0564 39.2773 55.8364 39C56.6164 38.7227 57.5004 38.584 58.4884 38.584C59.9444 38.584 61.0191 38.974 61.7124 39.754C62.4057 40.5167 62.7437 41.73 62.7264 43.394C62.7264 44.0353 62.7264 44.6853 62.7264 45.344C62.7264 45.9853 62.7177 46.6353 62.7004 47.294C62.7004 47.9353 62.7004 48.5853 62.7004 49.244C62.7004 49.5213 62.6917 49.7987 62.6744 50.076C62.6571 50.3533 62.6311 50.6653 62.5964 51.012C62.9084 50.9947 63.2117 50.9773 63.5064 50.96C63.8184 50.9427 64.1304 50.9253 64.4424 50.908V52H60.7244ZM60.4904 45.63C59.9011 45.6473 59.2771 45.7253 58.6184 45.864C57.9771 45.9853 57.3791 46.176 56.8244 46.436C56.2871 46.696 55.8451 47.0427 55.4984 47.476C55.1691 47.892 55.0131 48.4033 55.0304 49.01C55.0651 49.6513 55.2731 50.1367 55.6544 50.466C56.0531 50.778 56.5211 50.934 57.0584 50.934C57.7691 50.934 58.3844 50.804 58.9044 50.544C59.4417 50.2667 59.9704 49.8853 60.4904 49.4C60.4731 49.2093 60.4644 49.0013 60.4644 48.776C60.4644 48.5507 60.4644 48.3167 60.4644 48.074C60.4644 47.9873 60.4644 47.71 60.4644 47.242C60.4817 46.774 60.4904 46.2367 60.4904 45.63ZM72.3627 59.046C70.8027 59.046 69.546 58.8727 68.5927 58.526C67.6393 58.1793 66.946 57.7373 66.5127 57.2C66.0793 56.6627 65.8627 56.108 65.8627 55.536C65.8627 54.9987 65.984 54.522 66.2267 54.106C66.4867 53.7073 66.7987 53.3607 67.1627 53.066C67.544 52.7713 67.908 52.5547 68.2547 52.416C67.7 52.2253 67.258 51.974 66.9287 51.662C66.6167 51.3327 66.4607 50.8993 66.4607 50.362C66.4607 49.7553 66.7033 49.192 67.1887 48.672C67.674 48.1347 68.298 47.8053 69.0607 47.684C68.2633 47.3027 67.622 46.774 67.1367 46.098C66.6687 45.422 66.4347 44.6333 66.4347 43.732C66.4347 42.692 66.7033 41.7907 67.2407 41.028C67.778 40.248 68.4627 39.65 69.2947 39.234C70.144 38.8007 71.0193 38.584 71.9207 38.584C72.4927 38.584 73.0647 38.6707 73.6367 38.844C74.2087 39 74.7373 39.234 75.2227 39.546C75.396 39.0607 75.6387 38.6273 75.9507 38.246C76.28 37.8647 76.6527 37.57 77.0687 37.362C77.4847 37.1367 77.918 37.024 78.3687 37.024C78.8193 37.024 79.1573 37.1453 79.3827 37.388C79.6253 37.6133 79.7467 37.9253 79.7467 38.324C79.7467 38.4453 79.712 38.5927 79.6427 38.766C79.5733 38.9393 79.452 39.0867 79.2787 39.208C79.1227 39.3293 78.906 39.39 78.6287 39.39C78.334 39.39 78.0913 39.3033 77.9007 39.13C77.71 38.9567 77.5887 38.74 77.5367 38.48C77.1033 38.5493 76.7653 38.7573 76.5227 39.104C76.28 39.4333 76.1153 39.7973 76.0287 40.196C76.4447 40.5773 76.774 41.0367 77.0167 41.574C77.2767 42.1113 77.4067 42.6833 77.4067 43.29C77.4067 44.2607 77.1467 45.1273 76.6267 45.89C76.124 46.6527 75.4567 47.2507 74.6247 47.684C73.7927 48.1 72.8913 48.308 71.9207 48.308C71.5913 48.308 71.3053 48.2907 71.0627 48.256C70.82 48.204 70.5253 48.178 70.1787 48.178C69.5373 48.178 69.0173 48.334 68.6187 48.646C68.22 48.958 68.0813 49.3307 68.2027 49.764C68.3413 50.18 68.766 50.4487 69.4767 50.57C70.1873 50.674 71.1407 50.752 72.3367 50.804C73.6713 50.856 74.8153 51.012 75.7687 51.272C76.722 51.532 77.45 51.9307 77.9527 52.468C78.4727 53.0227 78.7327 53.768 78.7327 54.704C78.7327 55.3973 78.542 56.0127 78.1607 56.55C77.7967 57.1047 77.3027 57.564 76.6787 57.928C76.072 58.292 75.3873 58.5693 74.6247 58.76C73.8793 58.9507 73.1253 59.046 72.3627 59.046ZM72.3367 58.032C73.8273 58.032 74.9887 57.7547 75.8207 57.2C76.6527 56.6453 77.0687 55.9953 77.0687 55.25C77.0687 54.6087 76.852 54.1147 76.4187 53.768C75.9853 53.4387 75.396 53.2047 74.6507 53.066C73.9053 52.9447 73.0473 52.8753 72.0767 52.858C71.6087 52.8407 71.1493 52.8147 70.6987 52.78C70.248 52.7627 69.8147 52.7193 69.3987 52.65C68.9307 52.962 68.5667 53.3433 68.3067 53.794C68.0467 54.2447 67.9167 54.7213 67.9167 55.224C67.9167 56.0733 68.3153 56.7493 69.1127 57.252C69.9273 57.772 71.002 58.032 72.3367 58.032ZM71.9987 47.372C72.64 47.372 73.1687 47.216 73.5847 46.904C74.018 46.592 74.3387 46.1673 74.5467 45.63C74.772 45.0927 74.8847 44.486 74.8847 43.81C74.8847 43.0473 74.772 42.3367 74.5467 41.678C74.3213 41.0193 73.9833 40.4907 73.5327 40.092C73.0993 39.6933 72.5447 39.494 71.8687 39.494C70.9327 39.494 70.2047 39.8493 69.6847 40.56C69.182 41.2533 68.9307 42.12 68.9307 43.16C68.9307 43.992 69.052 44.7287 69.2947 45.37C69.5373 45.994 69.884 46.488 70.3347 46.852C70.8027 47.1987 71.3573 47.372 71.9987 47.372ZM86.5028 52.416C85.3068 52.416 84.2235 52.1387 83.2528 51.584C82.2995 51.012 81.5455 50.2147 80.9908 49.192C80.4361 48.152 80.1588 46.93 80.1588 45.526C80.1588 44.3127 80.4275 43.1773 80.9648 42.12C81.5195 41.0627 82.2908 40.2133 83.2788 39.572C84.2668 38.9133 85.4108 38.584 86.7108 38.584C87.4388 38.584 88.1148 38.7053 88.7388 38.948C89.3801 39.1733 89.9435 39.5287 90.4288 40.014C90.9141 40.482 91.2955 41.08 91.5728 41.808C91.8501 42.5187 91.9888 43.3593 91.9888 44.33L82.8368 44.486C82.8368 45.8033 82.9755 46.9647 83.2528 47.97C83.5475 48.958 84.0155 49.7293 84.6568 50.284C85.2981 50.8213 86.1215 51.09 87.1268 51.09C87.6641 51.09 88.2101 50.9947 88.7648 50.804C89.3368 50.6133 89.8655 50.3533 90.3508 50.024C90.8361 49.6947 91.2261 49.3307 91.5208 48.932L92.1448 49.452C91.6768 50.18 91.1135 50.7607 90.4548 51.194C89.7961 51.6273 89.1201 51.9393 88.4268 52.13C87.7335 52.3207 87.0921 52.416 86.5028 52.416ZM82.9148 43.394H89.5448C89.5448 42.77 89.4495 42.172 89.2588 41.6C89.0855 41.0107 88.7908 40.534 88.3748 40.17C87.9588 39.7887 87.4128 39.598 86.7368 39.598C85.7315 39.598 84.8908 39.9013 84.2148 40.508C83.5561 41.0973 83.1228 42.0593 82.9148 43.394ZM94.1726 52V51.22C94.7099 51.22 95.0826 51.09 95.2906 50.83C95.4986 50.5527 95.6199 50.18 95.6546 49.712C95.6893 49.2267 95.7066 48.672 95.7066 48.048V42.12C95.7066 41.8427 95.7066 41.5653 95.7066 41.288C95.7239 41.0107 95.7586 40.7247 95.8106 40.43C95.4986 40.4473 95.1866 40.4647 94.8746 40.482C94.5799 40.4993 94.2766 40.5167 93.9646 40.534V39.442C94.7273 39.442 95.2993 39.4073 95.6806 39.338C96.0793 39.2687 96.3739 39.182 96.5646 39.078C96.7553 38.974 96.9113 38.8613 97.0326 38.74H97.7866C97.8213 38.9133 97.8386 39.1127 97.8386 39.338C97.8559 39.5633 97.8733 39.8233 97.8906 40.118C98.4106 39.6673 99.0086 39.3033 99.6846 39.026C100.361 38.7313 101.037 38.584 101.713 38.584C102.579 38.584 103.307 38.74 103.897 39.052C104.486 39.364 104.945 39.7887 105.275 40.326C105.864 39.8407 106.54 39.4333 107.303 39.104C108.083 38.7573 108.845 38.584 109.591 38.584C111.099 38.584 112.208 39.0433 112.919 39.962C113.629 40.8633 113.967 42.3453 113.933 44.408L113.907 49.244C113.907 49.5907 113.898 49.9027 113.881 50.18C113.881 50.44 113.855 50.7173 113.803 51.012C114.08 50.9947 114.349 50.986 114.609 50.986C114.886 50.9687 115.163 50.9513 115.441 50.934V52H110.137V51.22C110.674 51.22 111.047 51.09 111.255 50.83C111.463 50.5527 111.584 50.18 111.619 49.712C111.653 49.2267 111.671 48.672 111.671 48.048V44.408C111.671 42.9173 111.428 41.7993 110.943 41.054C110.475 40.3087 109.729 39.9447 108.707 39.962C108.169 39.962 107.632 40.0833 107.095 40.326C106.557 40.5687 106.089 40.872 105.691 41.236C105.777 41.5133 105.838 41.8167 105.873 42.146C105.925 42.458 105.951 42.7873 105.951 43.134C105.933 44.1393 105.925 45.1533 105.925 46.176C105.925 47.1987 105.916 48.2213 105.899 49.244C105.899 49.5907 105.89 49.9027 105.873 50.18C105.873 50.44 105.847 50.7173 105.795 51.012C106.072 50.9947 106.341 50.986 106.601 50.986C106.878 50.9687 107.155 50.9513 107.433 50.934V52H102.129V51.22C102.666 51.22 103.03 51.09 103.221 50.83C103.429 50.5527 103.55 50.18 103.585 49.712C103.637 49.2267 103.663 48.672 103.663 48.048L103.689 44.408C103.706 42.9173 103.489 41.7907 103.039 41.028C102.588 40.2653 101.851 39.8927 100.829 39.91C100.291 39.91 99.7626 40.0313 99.2426 40.274C98.7226 40.4993 98.2806 40.794 97.9166 41.158C97.9166 41.366 97.9166 41.5913 97.9166 41.834C97.9339 42.0593 97.9426 42.302 97.9426 42.562V49.244C97.9426 49.5907 97.9339 49.9027 97.9166 50.18C97.9166 50.44 97.8906 50.7173 97.8386 51.012C98.1159 50.9947 98.3846 50.986 98.6446 50.986C98.9219 50.9687 99.1993 50.9513 99.4766 50.934V52H94.1726ZM123.567 52.416C122.371 52.416 121.288 52.1387 120.317 51.584C119.364 51.012 118.61 50.2147 118.055 49.192C117.5 48.152 117.223 46.93 117.223 45.526C117.223 44.3127 117.492 43.1773 118.029 42.12C118.584 41.0627 119.355 40.2133 120.343 39.572C121.331 38.9133 122.475 38.584 123.775 38.584C124.503 38.584 125.179 38.7053 125.803 38.948C126.444 39.1733 127.008 39.5287 127.493 40.014C127.978 40.482 128.36 41.08 128.637 41.808C128.914 42.5187 129.053 43.3593 129.053 44.33L119.901 44.486C119.901 45.8033 120.04 46.9647 120.317 47.97C120.612 48.958 121.08 49.7293 121.721 50.284C122.362 50.8213 123.186 51.09 124.191 51.09C124.728 51.09 125.274 50.9947 125.829 50.804C126.401 50.6133 126.93 50.3533 127.415 50.024C127.9 49.6947 128.29 49.3307 128.585 48.932L129.209 49.452C128.741 50.18 128.178 50.7607 127.519 51.194C126.86 51.6273 126.184 51.9393 125.491 52.13C124.798 52.3207 124.156 52.416 123.567 52.416ZM119.979 43.394H126.609C126.609 42.77 126.514 42.172 126.323 41.6C126.15 41.0107 125.855 40.534 125.439 40.17C125.023 39.7887 124.477 39.598 123.801 39.598C122.796 39.598 121.955 39.9013 121.279 40.508C120.62 41.0973 120.187 42.0593 119.979 43.394ZM131.237 52V51.22C131.774 51.22 132.147 51.09 132.355 50.83C132.563 50.5527 132.684 50.18 132.719 49.712C132.753 49.2267 132.771 48.672 132.771 48.048L132.797 42.12C132.797 41.8427 132.797 41.5653 132.797 41.288C132.814 41.0107 132.849 40.7247 132.901 40.43C132.589 40.4473 132.277 40.4647 131.965 40.482C131.67 40.4993 131.367 40.5167 131.055 40.534V39.442C131.817 39.442 132.389 39.4073 132.771 39.338C133.169 39.2687 133.464 39.182 133.655 39.078C133.845 38.974 134.001 38.8613 134.123 38.74H134.877C134.894 38.8613 134.903 39 134.903 39.156C134.92 39.312 134.937 39.4853 134.955 39.676C134.972 39.8667 134.981 40.0833 134.981 40.326C135.362 39.9967 135.778 39.702 136.229 39.442C136.697 39.182 137.182 38.974 137.685 38.818C138.205 38.662 138.716 38.584 139.219 38.584C140.727 38.584 141.827 39.0607 142.521 40.014C143.214 40.95 143.561 42.4147 143.561 44.408V49.244C143.561 49.5907 143.552 49.9027 143.535 50.18C143.535 50.44 143.509 50.7173 143.457 51.012C143.734 50.9947 144.003 50.986 144.263 50.986C144.54 50.9687 144.817 50.9513 145.095 50.934V52H139.791V51.22C140.328 51.22 140.701 51.09 140.909 50.83C141.117 50.5527 141.238 50.18 141.273 49.712C141.307 49.2267 141.325 48.672 141.325 48.048V44.408C141.307 42.9173 141.056 41.7907 140.571 41.028C140.103 40.2653 139.357 39.8927 138.335 39.91C137.711 39.9273 137.095 40.092 136.489 40.404C135.899 40.716 135.405 41.1147 135.007 41.6C135.024 41.7387 135.033 41.8947 135.033 42.068C135.033 42.2413 135.033 42.4233 135.033 42.614L135.007 49.244C135.007 49.5907 134.998 49.9027 134.981 50.18C134.981 50.44 134.955 50.7173 134.903 51.012C135.18 50.9947 135.449 50.986 135.709 50.986C135.986 50.9687 136.263 50.9513 136.541 50.934V52H131.237ZM151.559 52.416C151.161 52.416 150.753 52.3553 150.337 52.234C149.921 52.13 149.531 51.9133 149.167 51.584C148.821 51.2547 148.543 50.778 148.335 50.154C148.127 49.5127 148.023 48.672 148.023 47.632L148.075 40.092L146.073 40.118V39C146.524 38.9827 146.983 38.818 147.451 38.506C147.919 38.1767 148.335 37.7347 148.699 37.18C149.081 36.6253 149.341 36.0187 149.479 35.36H150.363V39H154.731V40.014L150.363 40.066L150.311 47.294C150.311 48.074 150.372 48.7413 150.493 49.296C150.632 49.8333 150.849 50.2407 151.143 50.518C151.438 50.7953 151.819 50.934 152.287 50.934C152.773 50.934 153.223 50.7953 153.639 50.518C154.073 50.2407 154.454 49.8593 154.783 49.374L155.485 49.946C155.104 50.518 154.723 50.9687 154.341 51.298C153.977 51.6273 153.622 51.87 153.275 52.026C152.929 52.1993 152.608 52.3033 152.313 52.338C152.019 52.39 151.767 52.416 151.559 52.416Z" fill="#EBEBEB"/>
</svg>
