<svg width="18" height="19" viewBox="0 0 18 19" fill="none" xmlns="http://www.w3.org/2000/svg">
<path d="M3.54 2.36788C3.6 3.28688 3.75 4.18522 3.99 5.04225L2.79 6.28134C2.38 5.04225 2.12 3.73088 2.03 2.36788H3.54ZM13.4 14.7794C14.25 15.0273 15.12 15.1821 16 15.2441V16.7826C14.68 16.6897 13.41 16.4212 12.2 16.0082L13.4 14.7794ZM4.5 0.302734H1C0.45 0.302734 0 0.767393 0 1.33531C0 11.0312 7.61 18.8891 17 18.8891C17.55 18.8891 18 18.4244 18 17.8565V14.2528C18 13.6849 17.55 13.2203 17 13.2203C15.76 13.2203 14.55 13.0137 13.43 12.6317C13.33 12.5904 13.22 12.5801 13.12 12.5801C12.86 12.5801 12.61 12.6833 12.41 12.8795L10.21 15.1512C7.38 13.6539 5.06 11.2687 3.62 8.3465L5.82 6.07483C6.1 5.78571 6.18 5.383 6.07 5.0216C5.7 3.86512 5.5 2.62603 5.5 1.33531C5.5 0.767393 5.05 0.302734 4.5 0.302734Z" fill="#33332F"/>
</svg>
